<svg version="1" xmlns="http://www.w3.org/2000/svg" viewBox="0 0 512 512"><path d="M512 314l-1-1-1-5c-6-23-44-45-67-39a9 9 0 0 0 4 16c14-3 43 13 47 27l1 5v1a902 902 0 0 1-65 20c-4-32-13-65-26-113l-31-116c-7-26-30-36-48-31-7 2-14 6-19 12l-6-23c-7-25-30-36-48-31-7 2-14 7-19 13a42 42 0 0 0-50-21 43 43 0 0 0-30 29h-1a42 42 0 0 0-62 49l23 88c-6 7-18 24-24 48a9 9 0 1 0 16 4c4-12 9-23 14-31l26 97c1 4 6 7 10 6 5-1 7-6 6-11l-55-206a25 25 0 0 1 18-31c7-2 14-1 20 2 5 3 9 8 11 16l47 173a9 9 0 1 0 16-4L170 75c-2-7-1-14 2-19 4-6 9-10 16-12s13-1 19 2c6 4 10 9 12 16l49 182a9 9 0 1 0 16-5L242 82c-4-15 6-28 14-30 9-2 23 3 28 19l42 157c1 5 5 7 10 6s7-6 6-10l-26-99c-3-10-1-16 1-21 3-5 8-8 13-10 10-2 23 4 27 20l31 115c25 95 34 129 24 214l-185 50A526 526 0 0 0 17 297v-1l3-5c3-5 13-11 24-14s22-3 27 1l40 23a9 9 0 0 0 9-15l-40-23c-10-6-25-6-41-2s-28 12-34 22l-3 5c-4 9-2 17 4 22l1 1 30 18c51 29 139 100 178 177a9 9 0 0 0 10 5l197-53c4-1 6-4 7-7 4-39 6-68 3-96l35-11a944 944 0 0 0 35-10c7-4 11-11 10-20zM103 30a9 9 0 1 0 16-8l-9-17c-2-4-7-6-11-4-5 2-6 8-4 12l8 17z"/><path d="M300 26c8-9 20-10 27-6 8 4 14 18 6 33a9 9 0 1 0 15 8l12-22c8-13 23-17 35-9 13 7 17 22 10 35l-4 7-13 19a9 9 0 1 0 14 10l13-20c10-17 24-16 35-10a25 25 0 0 1 10 35l-49 84a9 9 0 0 0 15 8l48-83a42 42 0 0 0-15-59c-11-6-23-7-33-4 0-15-8-29-22-37-18-11-40-7-53 8-3-8-9-14-15-18-13-7-34-7-49 9a9 9 0 1 0 13 12zM54 66a9 9 0 0 0 12 0c3-3 3-9 0-12L49 37a9 9 0 1 0-12 12l17 17zM34 120h17a9 9 0 0 0 0-17H34a9 9 0 0 0 0 17zM34 180l3-1 25-8a9 9 0 0 0-5-17l-26 9a9 9 0 0 0 3 17z"/></svg>