<svg version="1.1" xmlns="http://www.w3.org/2000/svg" x="0px" y="0px" viewBox="0 0 1000 1000" enable-background="new 0 0 1000 1000" xml:space="preserve">
<g><path d="M217.3,40.5c12.4,0,26.9,0,43.1,0.1c20.1,0,42.6,0.1,66.5,0.1l226.4,0c36.4,0,41.8,0,42.4,0H990v521.8H706.2c-26.5,0-38.4-23.4-45.4-42.7c-10.8,0.1-22.6,0.3-30.7,0.5c-15.8,14.7-42.8,46.6-52.7,66.1c-2.3,4.6-4.8,9.6-7.3,14.7c-18,36.3-38.4,77.5-61.4,96.8c-2.7,2.3-6.4,5.1-11.3,8.8c-34.9,26.5-96.3,90-104.8,159.8c-4.8,39.8-20.5,67.5-46.7,82.4c-12.5,7.1-26.4,10.7-41.5,10.7c-16.9,0-30-4.6-33.6-6.1l-1.1-0.4l-7-4l-0.9-0.7c-4-3.1-98.1-77.3-61-183.7c28.5-81.8,61.7-124.1,69.2-132.9c2.2-3.2,4.3-6.8,6.1-10.2l-123.5,2l-0.7,0C93.8,619.4,8.1,580.1,10,489c0.6-28.2,9.9-49.5,19.5-64.1c-7-14.4-13-35-11.3-61.9c2.1-32.7,15.5-58.8,29.7-75.2c-3.8-10-6.5-21.6-5.9-36.2c1.5-39.9,11.5-70.4,29.9-90.7C70,143,70.4,108.8,93.7,77c7.9-10.7,32.5-35.7,90.7-36.4C191.4,40.5,201.8,40.5,217.3,40.5z M326.8,73.7c-23.9,0-46.5,0-66.6-0.1c-16.1,0-30.6-0.1-43-0.1c-15.3,0-25.6,0-32.5,0.1c-35.4,0.4-56.5,12.2-64.5,23c-20.3,27.7-16.3,58.1-14.6,66.8l1.8,9.3l-7.1,6.3c-10.7,9.5-23.8,30-25.4,73.8c-0.5,12.4,2.3,20.9,7.4,31.6l5.3,11.3l-9.4,8.2c-11.4,9.9-25.3,31.9-27.1,61.2c-1.6,25.1,5.5,42.3,11.8,52.2l6.3,10l-7.5,9.2c-8.3,10.2-18.3,27.7-18.8,53.1c-1.5,73,71.1,97.8,110.4,100.8l140.4-2.3l12.3,0.7l4.2,8.8c8.9,18.6-6.8,43.8-13.9,53.8l-0.9,1.1c-3.7,4.3-35.9,43.3-63.7,122.9c-28.1,80.6,40.3,138.9,49.1,146l2.7,1.6c2.8,1,10.7,3.4,20.6,3.4c9.3,0,17.7-2.1,25.1-6.4c16.6-9.4,26.8-28.8,30.3-57.7c12.1-99.6,106.9-174.1,117.7-182.2c4.4-3.3,7.9-5.9,10-7.7c17.8-14.8,38.2-56,53.1-86.1c2.6-5.2,5.1-10.2,7.4-14.9c13.6-27,48.3-66.2,65.2-80.3l4.4-3.7l5.8-0.1c9.5-0.2,33.3-0.6,49.2-0.7l12-0.1l4,12.3c3.5,10.7,10,30.5,17.6,30.5H957V73.7H595.5c-1.4,0-32.2,0-42.3,0L326.8,73.7z"/><path d="M709.4,55.9c9.1,0,16.5,7.4,16.5,16.5v458.2c0,9.1-7.4,16.5-16.5,16.5s-16.5-7.4-16.5-16.5V72.4C692.9,63.3,700.3,55.9,709.4,55.9z"/></g>
</svg>
